<svg width="500" height="500" viewBox="0 0 500 500" fill="none" xmlns="http://www.w3.org/2000/svg">
<path opacity="0.7" d="M67.931 167.086C67.931 167.086 40.054 239.074 79.228 311.589C118.402 384.105 199.107 422.391 263.697 455.137C328.287 487.883 395.358 471.936 427.231 418.299C459.104 364.662 415.386 326.371 415.334 249.881C415.283 173.391 426.781 153.139 385.371 88.517C343.961 23.894 242.312 9.592 165.471 57.521C88.631 105.45 67.931 167.086 67.931 167.086Z" fill="white"/>
<path d="M68.971 431.662H280.185C281.041 430.299 281.903 428.945 282.78 427.611C305.501 393.025 341.876 368.368 381.608 356.802C399.407 351.621 418.69 348.537 432.992 336.743C447.708 324.608 454.467 305.247 457.394 286.399C460.938 263.576 459.021 237.995 443.53 220.864C425.338 200.746 394.86 198.494 371.159 185.306C330.369 162.61 314.555 110.916 277.447 82.597C254.015 64.715 222.355 57.783 194.042 61.703C153.853 67.267 116.037 94.203 104.685 133.665C101.535 144.616 100.274 156.491 101.245 169.076C103.061 192.626 108.127 216.479 103.349 239.609C98.082 265.102 81.495 286.626 71.585 310.697C59.247 340.665 57.548 374.302 62.824 406.278C64.235 414.829 66.207 423.406 68.971 431.662Z" fill="#5C8374"/>
<path opacity="0.7" d="M68.971 431.662H280.185C281.041 430.299 281.903 428.945 282.78 427.611C305.501 393.025 341.876 368.368 381.608 356.802C399.407 351.621 418.69 348.537 432.992 336.743C447.708 324.608 454.467 305.247 457.394 286.399C460.938 263.576 459.021 237.995 443.53 220.864C425.338 200.746 394.86 198.494 371.159 185.306C330.369 162.61 314.555 110.916 277.447 82.597C254.015 64.715 222.355 57.783 194.042 61.703C153.853 67.267 116.037 94.203 104.685 133.665C101.535 144.616 100.274 156.491 101.245 169.076C103.061 192.626 108.127 216.479 103.349 239.609C98.082 265.102 81.495 286.626 71.585 310.697C59.247 340.665 57.548 374.302 62.824 406.278C64.235 414.829 66.207 423.406 68.971 431.662Z" fill="white"/>
<path d="M41.9919 431.662H460.308" stroke="#263238" stroke-miterlimit="10" stroke-linecap="round" stroke-linejoin="round"/>
<path d="M278.965 113.389V97.69L267.205 96.677C266.505 94.196 265.532 91.833 264.297 89.63L271.888 80.607L260.788 69.507L251.765 77.098C249.562 75.863 247.199 74.891 244.718 74.19L243.705 62.431H228.006L226.993 74.19C224.512 74.89 222.149 75.863 219.946 77.098L210.923 69.507L199.823 80.607L207.414 89.63C206.179 91.833 205.207 94.196 204.506 96.677L192.747 97.69V113.389L204.506 114.402C205.206 116.883 206.179 119.246 207.414 121.449L199.823 130.472L210.923 141.572L219.946 133.981C222.149 135.216 224.512 136.188 226.993 136.889L228.006 148.648H243.705L244.718 136.889C247.199 136.189 249.562 135.216 251.765 133.981L260.788 141.572L271.888 130.472L264.297 121.449C265.532 119.246 266.504 116.883 267.205 114.402L278.965 113.389ZM235.856 123.782C225.781 123.782 217.614 115.615 217.614 105.54C217.614 95.465 225.781 87.298 235.856 87.298C245.931 87.298 254.098 95.465 254.098 105.54C254.098 115.614 245.93 123.782 235.856 123.782Z" stroke="#263238" stroke-miterlimit="10" stroke-linecap="round" stroke-linejoin="round"/>
<path d="M447.689 266.845V259.316L442.049 258.83C441.713 257.64 441.247 256.507 440.655 255.451L444.296 251.124L438.972 245.801L434.645 249.442C433.589 248.85 432.455 248.383 431.266 248.048L430.78 242.409H423.252L422.766 248.048C421.576 248.384 420.443 248.85 419.387 249.442L415.06 245.801L409.737 251.124L413.377 255.451C412.785 256.507 412.318 257.641 411.983 258.831L406.344 259.317V266.846L411.983 267.332C412.319 268.522 412.785 269.655 413.377 270.711L409.737 275.038L415.06 280.361L419.387 276.721C420.443 277.313 421.577 277.78 422.766 278.115L423.252 283.754H430.78L431.266 278.115C432.456 277.779 433.589 277.313 434.645 276.721L438.972 280.361L444.296 275.038L440.655 270.711C441.247 269.655 441.714 268.521 442.049 267.332L447.689 266.845ZM427.016 271.829C422.184 271.829 418.268 267.912 418.268 263.081C418.268 258.25 422.185 254.333 427.016 254.333C431.848 254.333 435.764 258.25 435.764 263.081C435.764 267.912 431.847 271.829 427.016 271.829Z" stroke="#263238" stroke-miterlimit="10" stroke-linecap="round" stroke-linejoin="round"/>
<path d="M442.029 129.799C442.371 128.313 442.557 126.769 442.557 125.179C442.557 113.84 433.365 104.647 422.026 104.647C420.171 104.647 418.376 104.897 416.667 105.358C413.286 99.375 406.871 95.333 399.509 95.333C389.046 95.333 380.492 103.492 379.853 113.794C378.886 113.613 377.893 113.508 376.874 113.508C368.597 113.508 361.787 119.755 360.882 127.79C356.022 127.895 352.113 131.86 352.113 136.745C352.113 141.696 356.127 145.71 361.078 145.71H436.365C441.316 145.71 445.33 141.696 445.33 136.745C445.33 133.943 444.042 131.443 442.029 129.799Z" stroke="#263238" stroke-miterlimit="10" stroke-linecap="round" stroke-linejoin="round"/>
<path d="M400.632 138.833V159.581" stroke="#263238" stroke-miterlimit="10" stroke-linecap="round" stroke-linejoin="round"/>
<path d="M400.632 126.385V134.684" stroke="#263238" stroke-miterlimit="10" stroke-linecap="round" stroke-linejoin="round"/>
<path d="M400.632 118.63V123.069" stroke="#263238" stroke-miterlimit="10" stroke-linecap="round" stroke-linejoin="round"/>
<path d="M396.713 157.156L400.632 162.006L404.55 157.156" stroke="#263238" stroke-miterlimit="10" stroke-linecap="round" stroke-linejoin="round"/>
<path d="M212.635 373.15C212.977 371.664 213.163 370.12 213.163 368.53C213.163 357.191 203.971 347.998 192.631 347.998C190.777 347.998 188.981 348.248 187.272 348.709C183.891 342.726 177.476 338.684 170.114 338.684C159.651 338.684 151.097 346.843 150.458 357.145C149.491 356.964 148.498 356.859 147.479 356.859C139.202 356.859 132.392 363.106 131.487 371.141C126.627 371.246 122.718 375.211 122.718 380.096C122.718 385.047 126.732 389.061 131.683 389.061H206.97C211.921 389.061 215.935 385.047 215.935 380.096C215.936 377.295 214.649 374.794 212.635 373.15Z" stroke="#263238" stroke-miterlimit="10" stroke-linecap="round" stroke-linejoin="round"/>
<path d="M171.238 385.154V364.406" stroke="#263238" stroke-miterlimit="10" stroke-linecap="round" stroke-linejoin="round"/>
<path d="M171.238 397.602V389.303" stroke="#263238" stroke-miterlimit="10" stroke-linecap="round" stroke-linejoin="round"/>
<path d="M171.238 405.357V400.918" stroke="#263238" stroke-miterlimit="10" stroke-linecap="round" stroke-linejoin="round"/>
<path d="M175.156 366.832L171.238 361.982L167.32 366.832" stroke="#263238" stroke-miterlimit="10" stroke-linecap="round" stroke-linejoin="round"/>
<path d="M309.168 125.989H49.244V114.135C49.244 111.796 51.14 109.899 53.48 109.899H304.932C307.271 109.899 309.168 111.795 309.168 114.135V125.989Z" fill="#5C8374" stroke="#263238" stroke-miterlimit="10" stroke-linecap="round" stroke-linejoin="round"/>
<path d="M323.327 128.969H60.615V313.837H323.327V128.969Z" fill="white" stroke="#263238" stroke-miterlimit="10" stroke-linecap="round" stroke-linejoin="round"/>
<path d="M327.35 117.944C327.35 120.166 325.549 121.966 323.328 121.966C321.107 121.966 319.306 120.165 319.306 117.944C319.306 115.722 321.107 113.922 323.328 113.922C325.549 113.922 327.35 115.723 327.35 117.944Z" fill="white" stroke="#263238" stroke-miterlimit="10" stroke-linecap="round" stroke-linejoin="round"/>
<path d="M313.19 117.944C313.19 120.166 311.389 121.966 309.168 121.966C306.946 121.966 305.146 120.165 305.146 117.944C305.146 115.722 306.947 113.922 309.168 113.922C311.389 113.922 313.19 115.723 313.19 117.944Z" fill="white" stroke="#263238" stroke-miterlimit="10" stroke-linecap="round" stroke-linejoin="round"/>
<path d="M299.03 117.944C299.03 120.166 297.229 121.966 295.008 121.966C292.787 121.966 290.986 120.165 290.986 117.944C290.986 115.722 292.787 113.922 295.008 113.922C297.229 113.922 299.03 115.723 299.03 117.944Z" fill="white" stroke="#263238" stroke-miterlimit="10" stroke-linecap="round" stroke-linejoin="round"/>
<path d="M315.37 136.897H304.965" stroke="#263238" stroke-width="2" stroke-miterlimit="10" stroke-linecap="round" stroke-linejoin="round"/>
<path d="M315.37 141.117H304.965" stroke="#263238" stroke-width="2" stroke-miterlimit="10" stroke-linecap="round" stroke-linejoin="round"/>
<path d="M315.37 145.336H304.965" stroke="#263238" stroke-width="2" stroke-miterlimit="10" stroke-linecap="round" stroke-linejoin="round"/>
<path d="M78.813 245.977H157.538" stroke="#263238" stroke-width="2" stroke-miterlimit="10" stroke-linecap="round" stroke-linejoin="round"/>
<path d="M78.813 252.187H157.538" stroke="#263238" stroke-width="2" stroke-miterlimit="10" stroke-linecap="round" stroke-linejoin="round"/>
<path d="M78.813 258.514H140.885" stroke="#263238" stroke-width="2" stroke-miterlimit="10" stroke-linecap="round" stroke-linejoin="round"/>
<path d="M245.758 131.054V131.554" stroke="#263238" stroke-linecap="round" stroke-linejoin="round"/>
<path d="M245.758 134.549V308.779" stroke="#263238" stroke-linecap="round" stroke-linejoin="round" stroke-dasharray="1 3"/>
<path d="M245.758 310.276V310.776" stroke="#263238" stroke-linecap="round" stroke-linejoin="round"/>
<path d="M63.78 272.378H64.28" stroke="#263238" stroke-linecap="round" stroke-linejoin="round"/>
<path d="M67.275 272.378H317.308" stroke="#263238" stroke-linecap="round" stroke-linejoin="round" stroke-dasharray="1 2.99"/>
<path d="M318.805 272.378H319.305" stroke="#263238" stroke-linecap="round" stroke-linejoin="round"/>
<path d="M247.481 270.655H244.035V274.101H247.481V270.655Z" fill="white" stroke="#263238" stroke-miterlimit="10" stroke-linecap="round" stroke-linejoin="round"/>
<path d="M166.973 58.014H117.669C116.467 58.014 115.493 58.988 115.493 60.19V83.135C115.493 84.337 116.467 85.311 117.669 85.311H139.795L142.321 94.355L144.847 85.311H166.973C168.175 85.311 169.149 84.337 169.149 83.135V60.19C169.149 58.989 168.175 58.014 166.973 58.014Z" fill="#5C8374" stroke="#263238" stroke-miterlimit="10" stroke-linecap="round" stroke-linejoin="round"/>
<path d="M123.697 64.584H160.946" stroke="#263238" stroke-width="2" stroke-miterlimit="10" stroke-linecap="round" stroke-linejoin="round"/>
<path d="M123.697 69.303H160.946" stroke="#263238" stroke-width="2" stroke-miterlimit="10" stroke-linecap="round" stroke-linejoin="round"/>
<path d="M123.697 74.022H160.946" stroke="#263238" stroke-width="2" stroke-miterlimit="10" stroke-linecap="round" stroke-linejoin="round"/>
<path d="M123.697 78.742H151.77" stroke="#263238" stroke-width="2" stroke-miterlimit="10" stroke-linecap="round" stroke-linejoin="round"/>
<path d="M146.857 301.594H93.202V335.223H146.857V301.594Z" fill="#263238" stroke="#263238" stroke-miterlimit="10" stroke-linecap="round" stroke-linejoin="round"/>
<path d="M146.857 301.594H93.202V306.707H146.857V301.594Z" fill="#5C8374" stroke="#263238" stroke-miterlimit="10" stroke-linecap="round" stroke-linejoin="round"/>
<path d="M98.678 311.017H112.392" stroke="white" stroke-miterlimit="10" stroke-linecap="round" stroke-linejoin="round"/>
<path d="M105.535 314.841H129.271" stroke="white" stroke-miterlimit="10" stroke-linecap="round" stroke-linejoin="round"/>
<path d="M102.502 318.409H109.491" stroke="white" stroke-miterlimit="10" stroke-linecap="round" stroke-linejoin="round"/>
<path d="M105.535 322.621H121.522" stroke="white" stroke-miterlimit="10" stroke-linecap="round" stroke-linejoin="round"/>
<path d="M98.678 326.445H112.392" stroke="white" stroke-miterlimit="10" stroke-linecap="round" stroke-linejoin="round"/>
<path d="M231.992 239.235H185.926" stroke="#263238" stroke-miterlimit="10" stroke-linecap="round" stroke-linejoin="round"/>
<path d="M232.878 260.536C232.878 260.536 232.878 239.132 208.959 239.132C185.04 239.132 185.04 260.536 185.04 260.536" stroke="#263238" stroke-miterlimit="10" stroke-linecap="round" stroke-linejoin="round"/>
<path d="M232.878 262.551C233.991 262.551 234.893 261.649 234.893 260.536C234.893 259.423 233.991 258.521 232.878 258.521C231.765 258.521 230.863 259.423 230.863 260.536C230.863 261.649 231.765 262.551 232.878 262.551Z" fill="#5C8374" stroke="#263238" stroke-miterlimit="10" stroke-linecap="round" stroke-linejoin="round"/>
<path d="M183.025 260.536C183.025 259.423 183.927 258.521 185.04 258.521C186.153 258.521 187.055 259.423 187.055 260.536C187.055 261.649 186.153 262.551 185.04 262.551C183.927 262.551 183.025 261.649 183.025 260.536Z" fill="#5C8374" stroke="#263238" stroke-miterlimit="10" stroke-linecap="round" stroke-linejoin="round"/>
<path d="M231.106 240.904H234.649V237.36H231.106V240.904Z" fill="#5C8374" stroke="#263238" stroke-miterlimit="10" stroke-linecap="round" stroke-linejoin="round"/>
<path d="M207.187 240.904H210.731V237.36H207.187V240.904Z" fill="#5C8374" stroke="#263238" stroke-miterlimit="10" stroke-linecap="round" stroke-linejoin="round"/>
<path d="M183.269 240.904H186.812V237.36H183.269V240.904Z" fill="#5C8374" stroke="#263238" stroke-miterlimit="10" stroke-linecap="round" stroke-linejoin="round"/>
<path d="M107.434 174.865V167.793L102.136 167.337C101.821 166.219 101.382 165.155 100.826 164.163L104.246 160.098L99.245 155.097L95.18 158.517C94.188 157.961 93.123 157.523 92.006 157.207L91.549 151.909H84.477L84.02 157.207C82.902 157.522 81.838 157.96 80.846 158.517L76.781 155.097L71.78 160.098L75.2 164.163C74.644 165.155 74.206 166.22 73.89 167.338L68.592 167.794V174.866L73.89 175.323C74.205 176.441 74.644 177.505 75.2 178.498L71.78 182.563L76.781 187.564L80.846 184.144C81.838 184.7 82.903 185.138 84.02 185.454L84.477 190.752H91.549L92.006 185.454C93.124 185.139 94.188 184.7 95.181 184.144L99.246 187.564L104.247 182.563L100.827 178.498C101.383 177.506 101.821 176.441 102.137 175.324L107.434 174.865ZM88.014 179.547C83.475 179.547 79.796 175.868 79.796 171.329C79.796 166.79 83.475 163.111 88.014 163.111C92.553 163.111 96.232 166.79 96.232 171.329C96.232 175.868 92.552 179.547 88.014 179.547Z" fill="#5C8374" stroke="#263238" stroke-miterlimit="10" stroke-linecap="round" stroke-linejoin="round"/>
<path d="M131.469 190.728V185.887L127.843 185.574C127.627 184.809 127.327 184.08 126.946 183.401L129.287 180.619L125.864 177.196L123.082 179.537C122.403 179.156 121.674 178.856 120.909 178.64L120.596 175.014H115.755L115.442 178.64C114.677 178.856 113.948 179.156 113.269 179.537L110.486 177.196L107.063 180.619L109.404 183.401C109.023 184.08 108.723 184.809 108.507 185.574L104.881 185.887V190.728L108.507 191.041C108.723 191.806 109.023 192.535 109.404 193.214L107.063 195.996L110.486 199.419L113.268 197.078C113.947 197.459 114.676 197.759 115.441 197.975L115.754 201.601H120.595L120.908 197.975C121.673 197.759 122.402 197.459 123.081 197.078L125.863 199.419L129.286 195.996L126.945 193.213C127.326 192.534 127.626 191.805 127.842 191.04L131.469 190.728ZM118.176 193.933C115.069 193.933 112.551 191.414 112.551 188.308C112.551 185.201 115.07 182.683 118.176 182.683C121.283 182.683 123.801 185.202 123.801 188.308C123.801 191.415 121.283 193.933 118.176 193.933Z" fill="#5C8374" stroke="#263238" stroke-miterlimit="10" stroke-linecap="round" stroke-linejoin="round"/>
<path d="M255.645 284.137H294.37" stroke="#263238" stroke-width="2" stroke-miterlimit="10" stroke-linecap="round" stroke-linejoin="round"/>
<path d="M255.645 290.347H294.37" stroke="#263238" stroke-width="2" stroke-miterlimit="10" stroke-linecap="round" stroke-linejoin="round"/>
<path d="M255.645 296.675H277.717" stroke="#263238" stroke-width="2" stroke-miterlimit="10" stroke-linecap="round" stroke-linejoin="round"/>
<path d="M204.612 299.248H184.223C181.452 299.248 179.205 297.002 179.205 294.231C179.205 291.46 181.451 289.213 184.223 289.213H204.612C207.383 289.213 209.63 291.459 209.63 294.231C209.63 297.002 207.383 299.248 204.612 299.248Z" fill="#5C8374" stroke="#263238" stroke-miterlimit="10" stroke-linecap="round" stroke-linejoin="round"/>
<path d="M242.606 299.248H222.217C219.446 299.248 217.199 297.002 217.199 294.231C217.199 291.46 219.446 289.213 222.217 289.213H242.606C245.377 289.213 247.624 291.459 247.624 294.231C247.623 297.002 245.377 299.248 242.606 299.248Z" fill="#5C8374" stroke="#263238" stroke-miterlimit="10" stroke-linecap="round" stroke-linejoin="round"/>
<path d="M301.714 191.966H258.473V235.207H301.714V191.966Z" fill="white" stroke="#263238" stroke-miterlimit="10" stroke-linecap="round" stroke-linejoin="round"/>
<path d="M258.473 191.966L301.714 235.207" stroke="#263238" stroke-miterlimit="10" stroke-linecap="round" stroke-linejoin="round"/>
<path d="M301.714 191.966L258.473 235.207" stroke="#263238" stroke-miterlimit="10" stroke-linecap="round" stroke-linejoin="round"/>
<path d="M348.664 166.281H295.008V199.91H348.664V166.281Z" fill="#263238" stroke="#263238" stroke-miterlimit="10" stroke-linecap="round" stroke-linejoin="round"/>
<path d="M348.664 166.281H295.008V171.394H348.664V166.281Z" fill="#5C8374" stroke="#263238" stroke-miterlimit="10" stroke-linecap="round" stroke-linejoin="round"/>
<path d="M300.483 175.703H314.198" stroke="white" stroke-miterlimit="10" stroke-linecap="round" stroke-linejoin="round"/>
<path d="M307.341 179.527H331.077" stroke="white" stroke-miterlimit="10" stroke-linecap="round" stroke-linejoin="round"/>
<path d="M304.308 183.095H311.297" stroke="white" stroke-miterlimit="10" stroke-linecap="round" stroke-linejoin="round"/>
<path d="M307.341 187.308H323.328" stroke="white" stroke-miterlimit="10" stroke-linecap="round" stroke-linejoin="round"/>
<path d="M300.483 191.132H314.198" stroke="white" stroke-miterlimit="10" stroke-linecap="round" stroke-linejoin="round"/>
<path d="M275.43 142.88V152.97L270.98 157.42H260.89V142.88H275.43Z" fill="white" stroke="#263238" stroke-miterlimit="10" stroke-linecap="round" stroke-linejoin="round"/>
<path d="M275.43 152.97L270.98 157.42V152.97H275.43Z" fill="white" stroke="#263238" stroke-miterlimit="10" stroke-linecap="round" stroke-linejoin="round"/>
<path d="M120.798 220.915V231.005L116.348 235.455H106.258V220.915H120.798Z" fill="white" stroke="#263238" stroke-miterlimit="10" stroke-linecap="round" stroke-linejoin="round"/>
<path d="M120.798 231.005L116.348 235.455V231.005H120.798Z" fill="white" stroke="#263238" stroke-miterlimit="10" stroke-linecap="round" stroke-linejoin="round"/>
<path d="M65.855 283.077V293.167L61.405 297.617H51.315V283.077H65.855Z" fill="white" stroke="#263238" stroke-miterlimit="10" stroke-linecap="round" stroke-linejoin="round"/>
<path d="M65.855 293.167L61.405 297.617V293.167H65.855Z" fill="white" stroke="#263238" stroke-miterlimit="10" stroke-linecap="round" stroke-linejoin="round"/>
<path d="M247.868 221.575C242.583 222.027 235.856 215.706 235.856 215.706C235.856 215.706 234.827 216.701 233.968 215.465C233.109 214.229 229.38 211.363 229.17 208.88C228.96 206.398 233.365 202.377 233.365 202.377C229.967 203.304 229.609 201.313 229.609 201.313C229.609 201.313 235.32 196.597 237.317 196.471C238.1 196.421 241.505 198.378 244.794 201.023C248.234 203.79 254.689 213.542 254.689 213.542C254.689 213.542 276.543 229.411 282.066 233.474C289.353 238.835 297.991 248.341 297.991 248.341C297.991 248.341 327.011 261.419 334.968 268.607L324.155 294.231C324.155 294.231 297.781 276.561 295.144 272.077C292.507 267.594 289.869 270.291 287.232 267.36C284.595 264.429 282.066 261.081 282.066 261.081C282.066 261.081 275.683 258.286 269.515 251.956C263.347 245.626 257.918 235.945 254.509 230.143C251.099 224.341 247.868 221.575 247.868 221.575Z" fill="white" stroke="#263238" stroke-miterlimit="10" stroke-linecap="round" stroke-linejoin="round"/>
<path d="M249.48 217.836C249.48 217.836 241.615 215.931 240.931 210.739C240.709 209.052 239.243 207.11 239.243 207.11C239.243 207.11 231.897 206.747 232.364 203.757L242.158 202.892C242.158 202.892 247.529 204.647 250.695 210.068" fill="white"/>
<path d="M249.48 217.836C249.48 217.836 241.615 215.931 240.931 210.739C240.709 209.052 239.243 207.11 239.243 207.11C239.243 207.11 231.897 206.747 232.364 203.757L242.158 202.892C242.158 202.892 247.529 204.647 250.695 210.068" stroke="#263238" stroke-miterlimit="10" stroke-linecap="round" stroke-linejoin="round"/>
<path d="M235.856 215.706C235.856 215.706 236.35 215.017 236.187 213.586C236.187 213.586 238.347 213.195 238.106 211.281C238.106 211.281 241.31 210.887 239.242 207.11" stroke="#263238" stroke-miterlimit="10" stroke-linecap="round" stroke-linejoin="round"/>
<path d="M238.106 211.281C238.106 211.281 233.804 208.086 233.315 206.632" stroke="#263238" stroke-miterlimit="10" stroke-linecap="round" stroke-linejoin="round"/>
<path d="M236.187 213.586C236.187 213.586 231.6 210.794 231.519 209.155" stroke="#263238" stroke-miterlimit="10" stroke-linecap="round" stroke-linejoin="round"/>
<path d="M237.235 199.206C237.235 199.206 235.778 201.829 233.364 202.377" stroke="#263238" stroke-miterlimit="10" stroke-linecap="round" stroke-linejoin="round"/>
<path d="M236.511 200.234C236.511 200.234 237.677 200.822 238.67 201.662" stroke="#263238" stroke-miterlimit="10" stroke-linecap="round" stroke-linejoin="round"/>
<path d="M404.115 288.801C404.115 288.801 386.78 281.256 369.214 277.141C351.647 273.026 323.253 269.36 323.253 269.36C323.253 269.36 331.071 349.159 329.013 353.961C326.955 358.762 314.591 374.88 314.591 374.88C314.591 374.88 381.483 400.961 393.143 403.181C404.803 405.402 398.721 364.934 398.721 364.934C398.721 364.934 410.973 313.493 404.115 288.801Z" fill="#263238"/>
<path d="M380.11 280.23C380.11 280.23 381.7 283.26 377.52 284.8C366.69 288.8 355.15 285.27 356.38 281.03C356.85 279.41 359.53 281.03 359.36 274.98C359.34 274.2 359.06 273.29 358.63 272.32C357.97 270.82 356.93 269.18 355.88 267.71C354.05 265.15 352.17 263.08 352.17 263.08C352.17 263.08 369.36 252.11 382.11 263.08C382.11 263.08 377.37 265.48 380.11 280.23Z" fill="white" stroke="#263238" stroke-miterlimit="10" stroke-linecap="round" stroke-linejoin="round"/>
<path d="M401.41 422.36C394.64 433.39 360.29 438.57 341.54 438.08C322.8 437.6 268.84 412.05 265.18 406.64C261.79 401.63 253.46 385.07 266.3 375.06C267.32 374.27 268.46 373.52 269.76 372.82C278.55 368.06 337.01 383.07 337.01 383.07C337.01 383.07 340.63 380.78 341.96 380.95C346.04 381.47 348.93 384.77 357.2 387.12C362.97 388.77 378.72 382.43 388.78 387.88C389.88 388.47 390.9 389.2 391.84 390.1C401.24 399.08 408.17 411.33 401.41 422.36Z" fill="#5C8374"/>
<mask id="mask0_1_3999" style="mask-type:luminance" maskUnits="userSpaceOnUse" x="259" y="371" width="146" height="68">
<path d="M401.41 422.36C394.64 433.39 360.29 438.57 341.54 438.08C322.8 437.6 268.84 412.05 265.18 406.64C261.79 401.63 253.46 385.07 266.3 375.06C267.32 374.27 268.46 373.52 269.76 372.82C278.55 368.06 337.01 383.07 337.01 383.07C337.01 383.07 340.63 380.78 341.96 380.95C346.04 381.47 348.93 384.77 357.2 387.12C362.97 388.77 378.72 382.43 388.78 387.88C389.88 388.47 390.9 389.2 391.84 390.1C401.24 399.08 408.17 411.33 401.41 422.36Z" fill="white"/>
</mask>
<g mask="url(#mask0_1_3999)">
<path opacity="0.3" d="M388.78 387.88C378.47 387.19 369.28 389.35 362.86 393.14C355.25 397.64 319.31 414.95 319.31 414.95C319.39 413.09 321.39 409.34 321.39 409.34C318.01 406.33 309.17 403.99 309.17 403.99C302.32 398.14 275.14 380.69 266.3 375.06C267.32 374.27 268.46 373.52 269.76 372.82C278.55 368.06 337.01 383.07 337.01 383.07C337.01 383.07 340.63 380.78 341.96 380.95C346.04 381.47 348.93 384.77 357.2 387.12C362.97 388.77 378.72 382.43 388.78 387.88Z" fill="black" fill-opacity="0.7"/>
</g>
<path d="M401.41 422.36C394.64 433.39 360.29 438.57 341.54 438.08C322.8 437.6 268.84 412.05 265.18 406.64C261.79 401.63 253.46 385.07 266.3 375.06C267.32 374.27 268.46 373.52 269.76 372.82C278.55 368.06 337.01 383.07 337.01 383.07C337.01 383.07 340.63 380.78 341.96 380.95C346.04 381.47 348.93 384.77 357.2 387.12C362.97 388.77 378.72 382.43 388.78 387.88C389.88 388.47 390.9 389.2 391.84 390.1C401.24 399.08 408.17 411.33 401.41 422.36Z" stroke="#263238" stroke-miterlimit="10" stroke-linecap="round" stroke-linejoin="round"/>
<path d="M390.865 432.316L391.729 436.086C391.729 436.086 389.43 442.613 379.317 443.678C369.204 444.743 363.22 446.984 358.361 447.276C353.502 447.568 350.672 447.154 350.672 447.154L349.679 445.67L390.865 432.316Z" fill="white" stroke="#263238" stroke-miterlimit="10" stroke-linecap="round" stroke-linejoin="round"/>
<path d="M332.162 431.918L349.678 445.667C349.678 445.667 363.259 444.591 374.796 441.913L374.797 441.904C383.098 439.983 390.345 437.226 390.744 433.45C391.35 427.708 385.214 426.136 377.92 426.36C376.557 426.39 375.16 426.496 373.749 426.643C362.076 427.894 347.24 421.446 347.24 421.446L332.162 431.918Z" fill="#263238"/>
<mask id="mask1_1_3999" style="mask-type:luminance" maskUnits="userSpaceOnUse" x="332" y="421" width="59" height="25">
<path d="M332.162 431.918L349.678 445.667C349.678 445.667 363.259 444.591 374.796 441.913L374.797 441.904C383.098 439.983 390.345 437.226 390.744 433.45C391.35 427.708 385.214 426.136 377.92 426.36C376.557 426.39 375.16 426.496 373.749 426.643C362.076 427.894 347.24 421.446 347.24 421.446L332.162 431.918Z" fill="white"/>
</mask>
<g mask="url(#mask1_1_3999)">
<path opacity="0.3" d="M390.75 433.323C387.603 434.563 383.694 436.288 381.006 438.117C381.006 438.117 364.735 446.491 339.734 437.866L332.158 431.919L347.242 421.447C347.242 421.447 362.074 427.897 373.751 426.64C375.164 426.493 376.56 426.389 377.921 426.363C385.159 426.137 391.253 427.68 390.75 433.323Z" fill="black" fill-opacity="0.7"/>
</g>
<path d="M332.162 431.918L349.678 445.667C349.678 445.667 363.259 444.591 374.796 441.913L374.797 441.904C383.098 439.983 390.345 437.226 390.744 433.45C391.35 427.708 385.214 426.136 377.92 426.36C376.557 426.39 375.16 426.496 373.749 426.643C362.076 427.894 347.24 421.446 347.24 421.446L332.162 431.918Z" stroke="#263238" stroke-miterlimit="10" stroke-linecap="round" stroke-linejoin="round"/>
<path d="M348.491 437.337C345.333 437.852 348.803 444.311 353.084 442.349C357.365 440.387 351.649 436.822 348.491 437.337Z" fill="white"/>
<mask id="mask2_1_3999" style="mask-type:luminance" maskUnits="userSpaceOnUse" x="347" y="437" width="8" height="6">
<path d="M348.491 437.337C345.333 437.852 348.803 444.311 353.084 442.349C357.365 440.387 351.649 436.822 348.491 437.337Z" fill="white"/>
</mask>
<g mask="url(#mask2_1_3999)">
<path opacity="0.2" d="M354.419 441.307C352.261 441.047 349.989 440.657 347.614 440.119C347.007 438.853 347.146 437.553 348.49 437.336C351.142 436.903 355.598 439.348 354.419 441.307Z" fill="black" fill-opacity="0.7"/>
</g>
<path d="M348.491 437.337C345.333 437.852 348.803 444.311 353.084 442.349C357.365 440.387 351.649 436.822 348.491 437.337Z" stroke="#263238" stroke-miterlimit="10" stroke-linecap="round" stroke-linejoin="round"/>
<path d="M374.797 441.904C383.098 439.983 390.345 437.226 390.744 433.45C391.35 427.708 385.214 426.136 377.92 426.36C377.601 426.666 370.533 433.503 374.797 441.904Z" fill="white"/>
<mask id="mask3_1_3999" style="mask-type:luminance" maskUnits="userSpaceOnUse" x="373" y="426" width="18" height="16">
<path d="M374.797 441.904C383.098 439.983 390.345 437.226 390.744 433.45C391.35 427.708 385.214 426.136 377.92 426.36C377.601 426.666 370.533 433.503 374.797 441.904Z" fill="white"/>
</mask>
<g mask="url(#mask3_1_3999)">
<path opacity="0.3" d="M390.75 433.323C387.603 434.563 383.694 436.288 381.006 438.117C381.006 438.117 378.579 439.365 374.158 440.406C371.358 432.708 377.617 426.649 377.92 426.363C385.159 426.137 391.253 427.68 390.75 433.323Z" fill="black" fill-opacity="0.7"/>
</g>
<path d="M374.797 441.904C383.098 439.983 390.345 437.226 390.744 433.45C391.35 427.708 385.214 426.136 377.92 426.36C377.601 426.666 370.533 433.503 374.797 441.904Z" stroke="#263238" stroke-miterlimit="10" stroke-linecap="round" stroke-linejoin="round"/>
<path d="M368.877 434.773C368.894 434.775 368.911 434.776 368.927 434.777C369.406 434.8 369.812 434.431 369.835 433.953C370.009 430.336 372.792 427.39 372.821 427.361C373.152 427.015 373.141 426.467 372.795 426.136C372.45 425.805 371.903 425.816 371.571 426.159C371.438 426.297 368.309 429.59 368.103 433.869C368.081 434.331 368.423 434.725 368.877 434.773Z" fill="white" stroke="#263238" stroke-miterlimit="10" stroke-linecap="round" stroke-linejoin="round"/>
<path d="M365.406 434.981C365.43 434.984 365.456 434.985 365.48 434.985C365.959 434.995 366.355 434.614 366.364 434.136C366.437 430.482 368.991 427.314 369.018 427.282C369.32 426.912 369.266 426.366 368.896 426.063C368.525 425.76 367.982 425.812 367.677 426.183C367.556 426.329 364.714 429.835 364.631 434.102C364.622 434.555 364.964 434.934 365.406 434.981Z" fill="white" stroke="#263238" stroke-miterlimit="10" stroke-linecap="round" stroke-linejoin="round"/>
<path d="M361.257 434.543C361.262 434.543 361.267 434.544 361.272 434.545C361.749 434.587 362.17 434.234 362.212 433.757C362.478 430.719 365.063 426.835 365.089 426.796C365.355 426.398 365.249 425.86 364.852 425.594C364.455 425.326 363.915 425.434 363.65 425.83C363.533 426.004 360.791 430.121 360.485 433.606C360.443 434.076 360.788 434.493 361.257 434.543Z" fill="white" stroke="#263238" stroke-miterlimit="10" stroke-linecap="round" stroke-linejoin="round"/>
<path d="M357.335 434.129C357.412 434.137 357.49 434.135 357.57 434.122C358.042 434.043 358.361 433.596 358.282 433.124C357.666 429.442 361.086 426.288 361.121 426.257C361.475 425.936 361.502 425.388 361.182 425.033C360.862 424.678 360.314 424.65 359.959 424.969C359.789 425.123 355.797 428.782 356.572 433.409C356.638 433.802 356.958 434.089 357.335 434.129Z" fill="white" stroke="#263238" stroke-miterlimit="10" stroke-linecap="round" stroke-linejoin="round"/>
<path d="M353.076 433.104C353.169 433.114 353.265 433.109 353.361 433.086C353.828 432.979 354.119 432.514 354.011 432.047C353.257 428.765 356.493 425.055 356.526 425.019C356.842 424.66 356.809 424.113 356.451 423.795C356.094 423.478 355.546 423.51 355.229 423.868C355.07 424.046 351.367 428.277 352.323 432.436C352.408 432.806 352.719 433.066 353.076 433.104Z" fill="white" stroke="#263238" stroke-miterlimit="10" stroke-linecap="round" stroke-linejoin="round"/>
<path d="M262.971 426.677L261.716 430.335C261.716 430.335 263.316 437.068 273.262 439.188C283.207 441.309 288.923 444.167 293.724 444.967C298.525 445.767 301.383 445.653 301.383 445.653L302.526 444.281L262.971 426.677Z" fill="white" stroke="#263238" stroke-miterlimit="10" stroke-linecap="round" stroke-linejoin="round"/>
<path d="M321.391 432.448L302.528 444.281C302.528 444.281 289.135 441.784 277.943 437.909V437.9C269.89 435.117 262.972 431.615 262.972 427.818C262.972 422.045 269.239 421.126 276.469 422.114C277.821 422.287 279.2 422.539 280.587 422.834C292.065 425.305 307.495 420.45 307.495 420.45L321.391 432.448Z" fill="#263238"/>
<mask id="mask4_1_3999" style="mask-type:luminance" maskUnits="userSpaceOnUse" x="262" y="420" width="60" height="25">
<path d="M321.391 432.448L302.528 444.281C302.528 444.281 289.135 441.784 277.943 437.909V437.9C269.89 435.117 262.972 431.615 262.972 427.818C262.972 422.045 269.239 421.126 276.469 422.114C277.821 422.287 279.2 422.539 280.587 422.834C292.065 425.305 307.495 420.45 307.495 420.45L321.391 432.448Z" fill="white"/>
</mask>
<g mask="url(#mask4_1_3999)">
<path opacity="0.3" d="M321.391 432.448L310.295 439.409C299.155 436.054 291.908 428.954 287.765 423.536C297.604 423.562 307.495 420.45 307.495 420.45L321.391 432.448Z" fill="black" fill-opacity="0.7"/>
</g>
<path d="M321.391 432.448L302.528 444.281C302.528 444.281 289.135 441.784 277.943 437.909V437.9C269.89 435.117 262.972 431.615 262.972 427.818C262.972 422.045 269.239 421.126 276.469 422.114C277.821 422.287 279.2 422.539 280.587 422.834C292.065 425.305 307.495 420.45 307.495 420.45L321.391 432.448Z" stroke="#263238" stroke-miterlimit="10" stroke-linecap="round" stroke-linejoin="round"/>
<path d="M277.943 437.9C269.89 435.117 262.972 431.615 262.972 427.818C262.972 422.045 269.239 421.126 276.469 422.114C276.755 422.452 283.066 429.994 277.943 437.9Z" fill="white" stroke="#263238" stroke-miterlimit="10" stroke-linecap="round" stroke-linejoin="round"/>
<path d="M284.579 431.431C284.562 431.431 284.545 431.43 284.529 431.429C284.051 431.402 283.685 430.992 283.713 430.515C283.92 426.9 281.461 423.678 281.436 423.646C281.143 423.267 281.212 422.723 281.59 422.43C281.968 422.137 282.511 422.206 282.805 422.581C282.923 422.733 285.688 426.336 285.444 430.612C285.417 431.075 285.036 431.431 284.579 431.431Z" fill="white" stroke="#263238" stroke-miterlimit="10" stroke-linecap="round" stroke-linejoin="round"/>
<path d="M288.009 432.002C287.984 432.002 287.959 432.001 287.935 431.999C287.458 431.958 287.104 431.539 287.145 431.062C287.457 427.421 285.249 424.002 285.226 423.967C284.964 423.567 285.075 423.03 285.475 422.767C285.876 422.505 286.41 422.614 286.675 423.014C286.78 423.172 289.238 426.957 288.873 431.209C288.833 431.661 288.454 432.002 288.009 432.002Z" fill="white" stroke="#263238" stroke-miterlimit="10" stroke-linecap="round" stroke-linejoin="round"/>
<path d="M292.181 432.002C292.176 432.002 292.171 432.002 292.166 432.002C291.688 431.993 291.306 431.598 291.314 431.12C291.368 428.071 289.206 423.937 289.184 423.895C288.961 423.472 289.123 422.948 289.546 422.724C289.968 422.499 290.494 422.663 290.717 423.085C290.815 423.27 293.109 427.652 293.048 431.15C293.04 431.624 292.653 432.002 292.181 432.002Z" fill="white" stroke="#263238" stroke-miterlimit="10" stroke-linecap="round" stroke-linejoin="round"/>
<path d="M296.125 432.002C296.048 432.002 295.97 431.992 295.892 431.971C295.431 431.842 295.161 431.365 295.288 430.903C296.288 427.306 293.217 423.81 293.186 423.776C292.868 423.42 292.898 422.872 293.254 422.553C293.61 422.234 294.157 422.263 294.477 422.618C294.63 422.789 298.215 426.847 296.959 431.367C296.853 431.751 296.504 432.002 296.125 432.002Z" fill="white" stroke="#263238" stroke-miterlimit="10" stroke-linecap="round" stroke-linejoin="round"/>
<path d="M300.468 431.431C300.375 431.431 300.279 431.416 300.186 431.384C299.733 431.228 299.493 430.736 299.648 430.283C300.743 427.098 297.914 423.069 297.885 423.03C297.608 422.64 297.699 422.099 298.088 421.821C298.476 421.543 299.017 421.633 299.296 422.022C299.435 422.216 302.674 426.813 301.286 430.847C301.163 431.205 300.827 431.431 300.468 431.431Z" fill="white" stroke="#263238" stroke-miterlimit="10" stroke-linecap="round" stroke-linejoin="round"/>
<path d="M304.583 436.122C307.67 436.966 303.54 443.025 299.489 440.624C295.438 438.223 301.497 435.278 304.583 436.122Z" fill="white" stroke="#263238" stroke-miterlimit="10" stroke-linecap="round" stroke-linejoin="round"/>
<path d="M268.917 403.986C273.554 410.478 287.279 417.645 300.959 423.561C302.43 425.992 305.424 430.539 309.537 434.769C317.958 443.43 321.391 438.578 321.391 438.578C321.391 438.578 326.709 437.981 334.564 436.905C335.086 437.913 336.279 439.493 338.534 439.137C339.556 438.976 341.522 437.515 343.74 435.587C363.567 432.602 390.481 427.625 397.748 421.77" fill="#5C8374"/>
<path d="M268.917 403.986C273.554 410.478 287.279 417.645 300.959 423.561C302.43 425.992 305.424 430.539 309.537 434.769C317.958 443.43 321.391 438.578 321.391 438.578C321.391 438.578 326.709 437.981 334.564 436.905C335.086 437.913 336.279 439.493 338.534 439.137C339.556 438.976 341.522 437.515 343.74 435.587C363.567 432.602 390.481 427.625 397.748 421.77" stroke="#263238" stroke-miterlimit="10" stroke-linecap="round" stroke-linejoin="round"/>
<path d="M389.976 391.64C386.547 387.868 383.117 387.696 375.915 388.211C375.915 388.211 357.126 394.169 344.021 402.1C330.917 410.031 311.784 418.364 311.784 418.364C311.784 418.364 305.954 416.675 301.898 418.364C301.898 418.364 299.049 418.585 300.958 423.562" stroke="#263238" stroke-miterlimit="10" stroke-linecap="round" stroke-linejoin="round"/>
<path d="M398.721 414.167C398.721 414.167 398.817 419.977 390.581 424" stroke="#263238" stroke-miterlimit="10" stroke-linecap="round" stroke-linejoin="round"/>
<path d="M307.841 389.926C307.841 389.926 320.852 399.329 323.445 405.53C323.445 405.53 328.447 407.659 330.833 409.338" stroke="#263238" stroke-miterlimit="10" stroke-linecap="round" stroke-linejoin="round"/>
<path d="M324.389 397.742C325.263 400.444 325.591 403.379 324.846 406.151" stroke="#263238" stroke-miterlimit="10" stroke-linecap="round" stroke-linejoin="round"/>
<path d="M321.391 391.64C322.104 392.666 322.716 393.763 323.253 394.891" stroke="#263238" stroke-miterlimit="10" stroke-linecap="round" stroke-linejoin="round"/>
<path d="M339.906 390.783C339.906 390.783 344.256 396.597 345.339 401.32" stroke="#263238" stroke-miterlimit="10" stroke-linecap="round" stroke-linejoin="round"/>
<path d="M364.136 425.939C365.754 425.835 367.369 425.657 368.961 425.345" stroke="#263238" stroke-miterlimit="10" stroke-linecap="round" stroke-linejoin="round"/>
<path d="M323.328 421.77C335.201 424.038 348.204 425.772 360.724 426.064" stroke="#263238" stroke-miterlimit="10" stroke-linecap="round" stroke-linejoin="round"/>
<path d="M411.319 333.588C411.319 333.588 408.97 374.537 406.201 376.937C403.432 379.337 399.06 380.024 390.786 380.709C382.512 381.395 345.938 383.643 345.938 383.643L342.026 371.89C342.026 371.89 361.475 369.916 370.108 366.739C378.74 363.562 389.977 361.481 389.977 361.481C389.977 361.481 388.343 351.168 388.343 346.734C388.343 342.3 388.343 331.007 388.343 325.851" fill="white"/>
<path d="M411.319 333.588C411.319 333.588 408.97 374.537 406.201 376.937C403.432 379.337 399.06 380.024 390.786 380.709C382.512 381.395 345.938 383.643 345.938 383.643L342.026 371.89C342.026 371.89 361.475 369.916 370.108 366.739C378.74 363.562 389.977 361.481 389.977 361.481C389.977 361.481 388.343 351.168 388.343 346.734C388.343 342.3 388.343 331.007 388.343 325.851" stroke="#263238" stroke-miterlimit="10" stroke-linecap="round" stroke-linejoin="round"/>
<path d="M404.115 288.801C413.033 294.288 415.663 306.977 412.576 334.069C412.576 334.069 415.209 337.27 411.319 338.87C411.319 338.87 396.754 333.423 389.976 337.175C383.198 340.927 384.957 331.987 384.957 331.987C384.957 331.987 382.169 307.066 388.342 302.563" fill="#263238"/>
<path d="M387.542 298.747C387.542 298.747 378.968 307.664 386.513 330.183C386.513 330.183 385.465 334.28 385.475 335.784C385.485 337.289 387.542 338.07 387.542 338.07" stroke="white" stroke-miterlimit="10" stroke-linecap="round" stroke-linejoin="round"/>
<path d="M377.518 313.836C377.518 313.836 378.143 324.81 384.957 329.611" stroke="white" stroke-miterlimit="10" stroke-linecap="round" stroke-linejoin="round"/>
<path d="M379.721 288.296C379.721 288.296 366.433 293.388 355.858 287.75C349.59 284.409 352.173 279.036 352.173 279.036" stroke="white" stroke-miterlimit="10" stroke-linecap="round" stroke-linejoin="round"/>
<path d="M284.151 391.659H356.489C358.123 391.659 359.751 391.449 361.331 391.034L375.598 387.291C376.004 387.184 376.287 386.817 376.287 386.397C376.287 385.887 375.873 385.473 375.363 385.473H281.162C280.652 385.473 280.238 385.887 280.238 386.397V387.746C280.239 389.908 281.991 391.659 284.151 391.659Z" fill="#757575" stroke="#263238" stroke-miterlimit="10" stroke-linecap="round" stroke-linejoin="round"/>
<path d="M276.98 388.065H349.52C350.786 388.065 351.544 387.022 351.213 385.736L337.755 333.407C337.424 332.121 336.13 331.078 334.864 331.078H262.324C261.058 331.078 260.3 332.121 260.631 333.407L274.089 385.736C274.42 387.022 275.714 388.065 276.98 388.065Z" fill="#999999" stroke="#263238" stroke-miterlimit="10" stroke-linecap="round" stroke-linejoin="round"/>
<path d="M264.882 332.94H263.511" stroke="#263238" stroke-miterlimit="10" stroke-linecap="round" stroke-linejoin="round"/>
<path d="M275.514 332.94H268.426" stroke="#263238" stroke-miterlimit="10" stroke-linecap="round" stroke-linejoin="round"/>
<path d="M347.776 381.448L335.9 335.269C335.569 333.983 334.275 332.94 333.009 332.94H277.115" stroke="#263238" stroke-miterlimit="10" stroke-linecap="round" stroke-linejoin="round"/>
<path d="M348.811 385.474L348.515 384.321" stroke="#263238" stroke-miterlimit="10" stroke-linecap="round" stroke-linejoin="round"/>
<path d="M298.813 360.89C298.859 361.304 298.94 361.722 299.066 362.144C299.992 365.294 302.943 367.208 305.654 366.41C308.365 365.612 309.815 362.407 308.889 359.256C307.954 356.098 305.003 354.193 302.292 354.991C301.971 355.088 301.663 355.218 301.376 355.38C301.608 357.71 300.603 359.888 298.813 360.89Z" fill="white" stroke="#263238" stroke-miterlimit="10" stroke-linecap="round" stroke-linejoin="round"/>
<path d="M330.833 262.824C324.554 262.138 321.125 256.174 317.352 255.241C313.58 254.308 311.167 253.251 311.167 253.251C311.167 253.251 309.866 248.706 307.921 250.293C305.977 251.88 303.407 285.787 305.921 284.722C308.435 283.658 308.435 287.658 308.435 287.658L331.748 308.206L351.289 273.604C351.289 273.604 337.112 263.51 330.833 262.824Z" fill="#263238"/>
<path d="M140.885 141.893V141.393H141.385" stroke="#263238" stroke-linecap="round" stroke-linejoin="round"/>
<path d="M144.319 141.393H228.918" stroke="#263238" stroke-linecap="round" stroke-linejoin="round" stroke-dasharray="0.98 2.93"/>
<path d="M230.385 141.393H230.885V141.893" stroke="#263238" stroke-linecap="round" stroke-linejoin="round"/>
<path d="M230.885 144.893V199.393" stroke="#263238" stroke-linecap="round" stroke-linejoin="round" stroke-dasharray="1 3"/>
<path d="M230.885 200.893V201.393H230.385" stroke="#263238" stroke-linecap="round" stroke-linejoin="round"/>
<path d="M227.451 201.393H142.852" stroke="#263238" stroke-linecap="round" stroke-linejoin="round" stroke-dasharray="0.98 2.93"/>
<path d="M141.385 201.393H140.885V200.893" stroke="#263238" stroke-linecap="round" stroke-linejoin="round"/>
<path d="M140.885 197.893V143.393" stroke="#263238" stroke-linecap="round" stroke-linejoin="round" stroke-dasharray="1 3"/>
<path d="M185.885 142.877C186.705 142.877 187.369 142.213 187.369 141.393C187.369 140.573 186.705 139.909 185.885 139.909C185.065 139.909 184.401 140.573 184.401 141.393C184.401 142.213 185.065 142.877 185.885 142.877Z" fill="#5C8374" stroke="#263238" stroke-miterlimit="10" stroke-linecap="round" stroke-linejoin="round"/>
<path d="M140.885 172.877C141.705 172.877 142.369 172.213 142.369 171.393C142.369 170.573 141.705 169.909 140.885 169.909C140.065 169.909 139.401 170.573 139.401 171.393C139.401 172.213 140.065 172.877 140.885 172.877Z" fill="#5C8374" stroke="#263238" stroke-miterlimit="10" stroke-linecap="round" stroke-linejoin="round"/>
<path d="M185.885 202.877C186.705 202.877 187.369 202.213 187.369 201.393C187.369 200.573 186.705 199.909 185.885 199.909C185.065 199.909 184.401 200.573 184.401 201.393C184.401 202.213 185.065 202.877 185.885 202.877Z" fill="#5C8374" stroke="#263238" stroke-miterlimit="10" stroke-linecap="round" stroke-linejoin="round"/>
<path d="M230.885 172.877C231.705 172.877 232.369 172.213 232.369 171.393C232.369 170.573 231.705 169.909 230.885 169.909C230.065 169.909 229.401 170.573 229.401 171.393C229.401 172.213 230.065 172.877 230.885 172.877Z" fill="#5C8374" stroke="#263238" stroke-miterlimit="10" stroke-linecap="round" stroke-linejoin="round"/>
<path d="M232.608 199.67H229.162V203.116H232.608V199.67Z" fill="#5C8374" stroke="#263238" stroke-miterlimit="10" stroke-linecap="round" stroke-linejoin="round"/>
<path d="M232.608 139.67H229.162V143.116H232.608V139.67Z" fill="#5C8374" stroke="#263238" stroke-miterlimit="10" stroke-linecap="round" stroke-linejoin="round"/>
<path d="M142.608 199.67H139.162V203.116H142.608V199.67Z" fill="#5C8374" stroke="#263238" stroke-miterlimit="10" stroke-linecap="round" stroke-linejoin="round"/>
<path d="M142.608 139.67H139.162V143.116H142.608V139.67Z" fill="#5C8374" stroke="#263238" stroke-miterlimit="10" stroke-linecap="round" stroke-linejoin="round"/>
<path d="M225.187 146.7H146.857V196.47H225.187V146.7Z" fill="white" stroke="#263238" stroke-miterlimit="10" stroke-linecap="round" stroke-linejoin="round"/>
<path d="M225.187 181.769L216.479 190.477L192.922 166.92L183.01 176.831L167.205 161.026L146.857 181.374V196.47H225.187V181.769Z" fill="#5C8374" stroke="#263238" stroke-miterlimit="10" stroke-linecap="round" stroke-linejoin="round"/>
<path d="M208.959 166.357C212.013 166.357 214.489 163.881 214.489 160.827C214.489 157.773 212.013 155.297 208.959 155.297C205.905 155.297 203.429 157.773 203.429 160.827C203.429 163.881 205.905 166.357 208.959 166.357Z" fill="#5C8374" stroke="#263238" stroke-miterlimit="10" stroke-linecap="round" stroke-linejoin="round"/>
<path d="M334.967 271.992C334.967 271.992 329.02 283.162 328.264 300.254" stroke="white" stroke-miterlimit="10" stroke-linecap="round" stroke-linejoin="round"/>
<path d="M317.363 279.732C317.363 279.732 319.153 289.23 324.39 296.115" stroke="white" stroke-miterlimit="10" stroke-linecap="round" stroke-linejoin="round"/>
<path d="M342.026 318.928C342.026 318.928 351.01 348.486 370.582 357.193" stroke="white" stroke-miterlimit="10" stroke-linecap="round" stroke-linejoin="round"/>
<path d="M365.68 265.42C365.68 265.42 364.83 271.87 358.63 272.32C357.97 270.82 356.93 269.18 355.88 267.71C359.99 266.39 365.68 265.42 365.68 265.42Z" fill="#263238"/>
<path d="M378.892 265.875C378.892 265.875 389.262 267.142 393.603 253.223C397.944 239.304 394.533 228.813 377.368 223.761C367.851 220.96 358.335 223.214 354.905 230.416C351.965 236.591 353.354 241.722 352.676 243.792C351.918 246.107 344.902 248.078 344.903 249.668C344.904 250.985 348.79 253.223 348.79 253.223L347.647 256.68L348.724 257.252C348.724 257.252 346.732 265.044 347.647 267.788C348.316 269.794 365.88 270.627 367.252 265.654" fill="white"/>
<path d="M378.892 265.875C378.892 265.875 389.262 267.142 393.603 253.223C397.944 239.304 394.533 228.813 377.368 223.761C367.851 220.96 358.335 223.214 354.905 230.416C351.965 236.591 353.354 241.722 352.676 243.792C351.918 246.107 344.902 248.078 344.903 249.668C344.904 250.985 348.79 253.223 348.79 253.223L347.647 256.68L348.724 257.252C348.724 257.252 346.732 265.044 347.647 267.788C348.316 269.794 365.88 270.627 367.252 265.654" stroke="#263238" stroke-miterlimit="10" stroke-linecap="round" stroke-linejoin="round"/>
<path d="M354.991 235.474C354.991 235.474 358.42 236.331 359.363 238.132" stroke="#263238" stroke-miterlimit="10" stroke-linecap="round" stroke-linejoin="round"/>
<path d="M355.599 243.375C355.451 244.382 355.683 245.25 356.116 245.314C356.549 245.378 357.02 244.613 357.168 243.605C357.316 242.598 357.084 241.73 356.651 241.666C356.218 241.603 355.747 242.368 355.599 243.375Z" fill="#263238"/>
<path d="M348.723 257.251C348.723 257.251 354.305 259.394 356.384 258.099" stroke="#263238" stroke-miterlimit="10" stroke-linecap="round" stroke-linejoin="round"/>
<path d="M350.685 242.582C350.27 244.817 350.77 246.783 351.802 246.975C352.834 247.167 354.007 245.51 354.422 243.276C354.837 241.041 354.337 239.074 353.305 238.883C352.273 238.691 351.1 240.347 350.685 242.582Z" stroke="#263238" stroke-miterlimit="10" stroke-linecap="round" stroke-linejoin="round"/>
<path d="M394.058 231.187C394.058 231.187 393.258 225.357 387.542 221.127C381.826 216.897 374.967 215.983 374.967 215.983C374.967 215.983 378.282 217.43 379.54 219.336C379.54 219.336 370.966 212.897 360.792 217.127C350.618 221.357 351.875 232.349 351.875 232.349L353.361 229.473C353.361 229.473 353.189 232.902 354.99 234.16C354.99 234.16 356.076 230.845 357.176 229.359C357.176 229.359 359.877 237.475 367.307 240.219C367.307 240.219 366.507 238.619 367.193 236.218C367.193 236.218 371.306 245.135 370.107 249.478L371.423 251.764C371.423 251.764 376.152 246.972 379.996 250.964C382.205 253.258 375.766 261.938 374.852 261.938L378.739 267.654C378.739 267.654 388.456 269.039 394.057 258.515C399.658 247.992 398.287 243.491 398.287 243.491C398.287 243.491 400.116 246.049 400.345 247.535C400.345 247.535 401.945 236.217 394.058 231.187Z" fill="#263238"/>
<path d="M371.195 252.792C371.195 252.792 374.177 242.706 380.574 246.263C386.971 249.82 382.398 255.193 380.112 257.25C377.826 259.308 376.111 263.08 374.625 263.08C373.139 263.08 372.796 261.251 372.796 261.251" fill="white"/>
<path d="M371.195 252.792C371.195 252.792 374.177 242.706 380.574 246.263C386.971 249.82 382.398 255.193 380.112 257.25C377.826 259.308 376.111 263.08 374.625 263.08C373.139 263.08 372.796 261.251 372.796 261.251" stroke="#263238" stroke-miterlimit="10" stroke-linecap="round" stroke-linejoin="round"/>
<path d="M354.422 243.276L372.224 246.971" stroke="#263238" stroke-miterlimit="10" stroke-linecap="round" stroke-linejoin="round"/>
</svg>
